<?xml version="1.0" standalone="no"?>
<!DOCTYPE svg PUBLIC "-//W3C//DTD SVG 20010904//EN"
 "http://www.w3.org/TR/2001/REC-SVG-20010904/DTD/svg10.dtd">
<svg version="1.0" xmlns="http://www.w3.org/2000/svg"
 width="1021.000000pt" height="489.000000pt" viewBox="0 0 1021.000000 489.000000"
 preserveAspectRatio="xMidYMid meet">

<g transform="translate(0.000000,489.000000) scale(0.100000,-0.100000)"
fill="#000000" stroke="none">
<path d="M9950 3702 c0 -7 -5 -12 -11 -12 -15 0 -133 -122 -254 -264 -11 -12
-34 -38 -50 -57 -25 -29 -80 -98 -107 -134 -127 -173 -318 -337 -418 -360 -38
-9 -97 -31 -102 -40 -4 -5 -8 -6 -8 -2 0 5 -7 1 -16 -7 -14 -14 -13 -18 3 -40
18 -24 61 -51 76 -48 4 1 7 -2 7 -7 0 -10 63 1 105 19 17 7 34 12 38 11 5 -1
6 3 3 8 -4 5 4 13 16 16 37 11 202 97 210 109 4 6 8 8 8 3 0 -4 18 4 39 19 23
15 45 23 52 18 7 -4 10 -3 7 2 -3 5 0 14 7 21 11 10 15 10 18 0 3 -7 6 -3 6 8
1 17 3 17 11 5 8 -13 10 -13 10 2 0 9 4 19 9 22 4 3 7 -6 5 -19 -1 -17 1 -23
9 -18 7 4 15 8 19 8 3 0 10 4 15 9 5 5 3 6 -5 2 -7 -4 -15 0 -19 10 -4 10 0
20 11 26 9 5 14 13 11 18 -3 5 0 12 6 16 8 5 9 3 4 -6 -5 -9 -4 -11 3 -6 7 4
12 14 12 22 0 8 5 12 10 9 6 -3 10 1 10 10 0 10 5 13 12 9 7 -4 8 -3 4 5 -4 6
-1 18 7 26 8 8 46 63 83 122 38 59 72 110 76 111 5 2 8 8 8 14 0 5 11 24 24
41 53 71 71 130 70 230 0 31 -6 54 -17 65 -11 10 -17 12 -17 4z"/>
<path d="M9210 3523 c0 -6 -18 -13 -40 -17 -21 -3 -50 -16 -63 -29 -12 -12
-29 -23 -36 -25 -23 -5 -181 -155 -199 -189 -25 -46 -31 -72 -20 -79 7 -4 8
-3 4 4 -4 7 -2 12 4 12 6 0 8 5 4 12 -4 7 -3 8 4 4 6 -4 8 -14 5 -24 -6 -14
-4 -15 9 -5 8 7 18 10 21 6 4 -3 7 -1 7 6 0 7 5 9 10 6 6 -3 10 -1 10 5 0 6
14 16 30 21 17 6 30 16 30 22 0 6 3 7 7 4 3 -4 12 2 20 13 8 11 21 20 29 20 8
0 13 4 9 9 -3 5 4 13 15 16 12 4 26 17 32 31 6 13 15 21 20 18 4 -3 11 3 15
13 3 10 19 31 35 47 20 21 25 33 17 42 -7 8 -6 14 2 20 8 4 9 3 5 -4 -4 -7 -5
-12 -1 -12 8 0 27 52 20 58 -3 3 -5 1 -5 -5z"/>
<path d="M2919 3418 c-7 -24 -5 -37 4 -31 8 5 8 2 0 -8 -10 -13 -7 -26 15 -70
39 -76 66 -119 75 -119 4 0 7 -5 7 -12 0 -6 8 -21 19 -32 10 -12 34 -50 52
-86 19 -36 36 -67 39 -70 3 -3 21 -30 40 -60 51 -82 110 -160 151 -202 20 -20
34 -39 31 -42 -2 -3 4 -4 16 -1 14 2 22 -3 25 -17 3 -11 10 -18 15 -15 4 4 20
0 35 -8 26 -13 26 -13 12 9 -8 12 -12 26 -8 31 5 4 -1 5 -12 1 -16 -6 -17 -5
-8 5 10 10 9 15 -5 26 -12 10 -12 12 -2 8 10 -4 9 -2 -2 8 -10 8 -15 17 -11
20 3 4 1 7 -6 7 -7 0 -10 4 -7 9 4 5 3 11 -2 13 -4 1 -26 32 -49 68 -23 36
-49 73 -57 83 -9 9 -13 17 -8 17 4 0 2 4 -4 8 -6 4 -23 30 -39 57 -16 28 -49
79 -74 115 -52 74 -63 91 -90 140 -19 35 -66 83 -92 93 -11 4 -11 6 0 6 8 1 4
8 -10 20 -13 10 -30 16 -38 13 -9 -3 -12 -1 -7 6 4 7 5 12 2 12 -3 0 -6 -1 -7
-2z"/>
<path d="M6986 3132 c-3 -5 1 -9 9 -9 8 0 12 4 9 9 -3 4 -7 8 -9 8 -2 0 -6 -4
-9 -8z"/>
<path d="M7016 3114 c-3 -9 -11 -12 -18 -8 -7 4 -9 3 -5 -1 14 -16 33 -13 34
6 2 23 -3 24 -11 3z"/>
<path d="M7006 3068 c3 -4 -2 -11 -10 -14 -17 -7 -22 -39 -7 -48 5 -4 7 4 4
16 -3 13 -3 20 0 17 4 -3 9 -28 11 -55 l4 -49 -12 35 c-11 29 -14 32 -18 15
-5 -17 -6 -16 -7 5 -2 48 -4 57 -18 57 -9 0 -10 -4 -3 -11 5 -5 10 -15 10 -20
-1 -6 -9 -1 -19 11 -18 22 -23 20 -31 -12 -1 -5 -6 -20 -11 -33 -5 -14 -5 -21
0 -18 5 4 12 0 15 -6 3 -7 3 1 0 17 -3 24 -3 26 5 10 9 -19 10 -19 10 3 1 12
-4 22 -10 22 -5 0 -7 5 -4 10 5 8 11 7 21 0 11 -10 11 -17 0 -43 -7 -18 -19
-31 -26 -29 -7 2 -10 -3 -7 -12 4 -9 2 -18 -4 -21 -5 -4 -6 -12 -3 -18 4 -7 3
-8 -1 -4 -13 11 -15 38 -3 31 6 -4 5 2 -1 15 -15 27 -19 27 -16 -4 2 -14 -1
-25 -6 -25 -6 0 -8 -4 -5 -9 3 -4 -1 -17 -8 -27 -11 -15 -12 -22 -3 -33 9 -11
9 -13 1 -8 -16 10 -25 -18 -11 -33 9 -10 9 -11 0 -6 -8 5 -13 1 -13 -9 0 -10
5 -13 13 -9 8 5 8 2 -2 -9 -7 -9 -19 -17 -25 -17 -6 0 -4 5 4 11 12 8 12 10 1
7 -8 -2 -16 -15 -18 -29 -2 -19 -1 -21 7 -9 5 8 10 10 10 5 0 -6 -5 -16 -11
-22 -6 -6 -12 -19 -14 -29 -2 -11 -4 -19 -5 -19 -8 0 -4 -45 4 -46 6 0 2 -4
-9 -9 -11 -5 -14 -9 -7 -9 8 -1 3 -11 -13 -26 -26 -27 -33 -41 -13 -29 7 4 8
3 4 -4 -4 -7 -13 -12 -20 -12 -7 0 -13 -7 -13 -15 0 -11 4 -12 14 -3 11 9 12
7 7 -8 -4 -10 -4 -16 0 -12 4 3 24 -1 44 -9 45 -19 92 -24 92 -10 0 6 3 7 7 4
3 -4 12 1 20 11 8 9 11 11 7 3 -4 -9 -3 -12 4 -8 5 4 8 17 5 30 -3 12 -3 19 2
15 4 -4 17 5 30 20 26 32 51 77 38 69 -12 -8 -10 39 1 50 5 5 6 2 1 -6 -6 -10
-4 -12 5 -6 10 6 9 11 -4 21 -14 10 -16 21 -12 51 21 124 31 204 30 240 0 18
4 29 9 26 6 -3 7 -1 3 5 -4 6 -2 20 4 31 7 13 7 22 0 26 -6 4 -8 10 -6 14 3 4
-1 8 -9 8 -8 0 -12 -4 -9 -9z m17 -34 c-4 -12 -8 -13 -14 -3 -9 15 -2 32 11
24 5 -3 6 -13 3 -21z m-60 -44 c-3 -12 -8 -19 -11 -16 -5 6 5 36 12 36 2 0 2
-9 -1 -20z m33 -76 c1 -9 0 -13 -4 -10 -3 4 -7 14 -8 22 -1 9 0 13 4 10 3 -4
7 -14 8 -22z m-42 -22 c3 -5 -1 -9 -9 -9 -8 0 -12 4 -9 9 3 4 7 8 9 8 2 0 6
-4 9 -8z m-77 -20 c0 -10 -6 -19 -13 -19 -9 0 -9 5 -1 19 7 10 13 18 14 18 1
0 1 -8 0 -18z"/>
<path d="M8085 2979 c-4 -5 -8 -25 -10 -42 -2 -18 -1 -24 1 -14 3 9 9 17 14
17 4 0 7 11 6 25 -1 28 -2 29 -11 14z"/>
<path d="M9616 2858 c-3 -16 -10 -27 -15 -23 -6 3 -17 -7 -25 -22 -23 -44
-146 -165 -162 -159 -7 3 -16 0 -20 -6 -4 -6 -3 -8 3 -5 5 4 21 -4 34 -16 13
-12 26 -21 29 -21 11 3 30 -9 25 -16 -2 -4 6 -17 19 -29 16 -15 26 -19 31 -12
3 6 11 8 17 5 7 -4 8 -2 4 4 -4 7 -2 12 5 12 7 0 10 3 6 6 -3 4 5 28 18 55 14
27 25 55 25 64 0 8 5 15 10 15 6 0 10 9 10 20 0 12 7 32 16 45 9 14 14 36 12
50 -3 13 0 26 6 29 6 2 5 5 -3 5 -12 1 -11 4 2 14 15 11 14 12 -12 13 -24 1
-30 -4 -35 -28z"/>
<path d="M8035 2822 c3 -18 1 -31 -4 -28 -4 3 -8 -3 -7 -14 0 -11 6 -20 11
-20 13 0 15 36 4 69 -8 23 -8 22 -4 -7z"/>
<path d="M8053 2835 c0 -8 4 -12 9 -9 5 3 6 10 3 15 -9 13 -12 11 -12 -6z"/>
<path d="M4127 2703 c-10 -3 -14 -9 -10 -16 5 -9 3 -9 -8 0 -21 17 -57 13 -54
-7 1 -8 8 -14 16 -12 9 2 9 -1 -2 -14 -9 -12 -9 -15 -1 -10 8 5 12 1 13 -11 0
-12 2 -13 6 -5 4 10 9 8 19 -7 9 -13 21 -18 31 -14 10 4 14 2 10 -4 -4 -7 0
-10 10 -8 10 1 23 0 28 -4 24 -14 35 -9 25 10 -12 22 -21 24 -40 7 -8 -7 -5
-1 8 13 12 14 19 29 15 33 -5 4 -8 12 -8 18 0 16 -37 35 -58 31z m-33 -21 c2
-4 -4 -8 -14 -8 -10 0 -16 4 -14 8 3 4 9 8 14 8 5 0 11 -4 14 -8z m106 -82 c0
-5 -2 -10 -4 -10 -3 0 -8 5 -11 10 -3 6 -1 10 4 10 6 0 11 -4 11 -10z"/>
<path d="M9420 2669 c0 -5 5 -7 10 -4 6 3 10 8 10 11 0 2 -4 4 -10 4 -5 0 -10
-5 -10 -11z"/>
<path d="M4200 2565 c0 -7 30 -13 34 -7 3 4 -4 9 -15 9 -10 1 -19 0 -19 -2z"/>
<path d="M7240 2540 c-13 -11 -19 -20 -14 -20 5 0 1 -5 -8 -11 -20 -11 -24
-50 -8 -78 21 -40 119 -56 178 -30 18 9 29 18 25 22 -3 4 -1 7 6 7 7 0 26 14
42 31 31 33 37 45 17 33 -9 -5 -9 -2 1 9 12 15 11 17 -5 18 -11 1 -22 1 -26 0
-5 0 -8 4 -8 10 0 8 -6 7 -17 -2 -11 -10 -14 -10 -9 -1 5 8 0 12 -13 13 -20 1
-32 4 -48 9 -20 6 -39 4 -52 -5 -11 -7 -13 -7 -7 3 4 6 3 12 -1 12 -5 0 -15
-6 -22 -12 -11 -10 -13 -10 -7 0 10 17 2 15 -24 -8z"/>
<path d="M4849 2494 c-1 -2 -3 -8 -4 -14 -1 -5 -4 -13 -5 -17 -1 -5 -2 -12 -1
-16 1 -4 4 -24 7 -45 7 -41 34 -93 45 -86 4 2 11 -1 14 -7 8 -12 42 20 45 42
5 36 -1 70 -11 63 -8 -5 -8 -1 0 14 15 28 -14 61 -56 66 -18 2 -34 2 -34 0z"/>
<path d="M656 2200 c-28 -14 -54 -25 -58 -25 -4 0 -15 -7 -25 -15 -10 -9 -21
-16 -26 -17 -4 -1 -20 -4 -35 -7 -15 -3 -45 -8 -67 -11 -39 -5 -65 -26 -65
-51 0 -26 69 -26 120 1 17 9 33 16 37 16 5 0 14 5 21 11 6 6 12 7 12 3 0 -5
10 0 22 11 14 13 19 14 14 4 -4 -8 -1 -7 8 4 8 10 20 15 25 11 6 -3 13 0 16 7
3 8 15 15 28 15 12 1 26 8 32 16 5 8 16 16 24 18 8 3 15 12 16 20 4 22 -41 17
-99 -11z"/>
<path d="M2151 2218 c-28 -10 -65 -18 -118 -25 -24 -3 -43 -10 -43 -16 0 -5
-6 -4 -14 2 -10 9 -16 9 -21 1 -5 -8 -11 -7 -23 2 -13 11 -15 11 -7 -2 6 -12
5 -13 -5 -3 -11 10 -16 9 -27 -5 -10 -12 -12 -12 -8 -2 4 10 2 9 -8 -2 -8 -10
-18 -18 -22 -18 -10 0 -75 -67 -75 -77 1 -29 47 -54 86 -47 49 9 196 61 262
93 34 17 66 31 70 31 15 0 52 49 47 62 -6 15 -62 18 -94 6z"/>
<path d="M9145 2177 c-21 -12 -26 -42 -11 -66 5 -8 4 -16 -5 -22 -12 -7 -11
-9 1 -9 13 0 13 -1 0 -10 -13 -9 -13 -10 0 -10 13 0 13 -1 0 -10 -13 -9 -13
-10 0 -10 13 0 13 -1 0 -10 -8 -5 -10 -10 -3 -10 12 0 12 -17 0 -36 -3 -6 -3
-14 1 -18 10 -11 9 -116 -1 -116 -5 0 -3 -8 4 -17 12 -14 12 -16 0 -8 -11 6
-13 3 -9 -13 4 -14 2 -20 -5 -15 -6 4 -8 0 -4 -10 3 -10 2 -17 -4 -17 -6 0 -7
-4 -4 -10 3 -5 1 -10 -5 -10 -6 0 -8 -5 -4 -12 4 -6 3 -8 -4 -4 -6 3 -22 -8
-37 -26 -15 -18 -24 -26 -20 -18 4 10 2 9 -8 -2 -8 -10 -16 -15 -19 -13 -4 4
-3 -41 1 -53 1 -1 11 3 24 9 20 11 21 11 8 -5 -8 -9 -10 -16 -5 -15 20 4 35
-2 29 -11 -3 -5 0 -7 8 -4 14 5 33 -13 52 -50 12 -22 10 -27 -44 -111 -14 -22
-28 -42 -31 -45 -3 -3 -17 -21 -30 -40 -13 -19 -76 -100 -140 -179 -63 -79
-124 -155 -135 -170 -11 -15 -45 -56 -75 -92 -30 -35 -61 -70 -68 -79 -105
-124 -272 -305 -272 -296 0 3 -13 -8 -29 -23 -17 -16 -44 -37 -60 -47 -17 -10
-31 -22 -31 -27 0 -4 -4 -6 -9 -3 -5 3 -11 -1 -15 -9 -3 -8 -12 -15 -20 -15
-7 0 -16 -7 -20 -15 -3 -8 -9 -14 -13 -13 -4 2 -25 -8 -46 -21 -34 -21 -38
-28 -33 -52 6 -31 58 -110 118 -178 21 -24 38 -50 38 -57 0 -11 19 -14 79 -14
75 0 81 1 113 32 19 18 67 64 106 102 40 37 96 103 124 145 29 42 71 96 93
121 50 54 89 112 137 200 49 92 144 235 200 303 27 32 63 86 80 120 27 54 82
142 99 157 34 31 128 241 143 320 2 14 9 45 15 70 21 91 2 290 -35 362 -8 15
-12 28 -9 28 3 0 -2 14 -11 31 -8 17 -17 45 -19 63 -2 17 -4 34 -4 37 -3 24
-145 44 -176 26z m-120 -526 c3 -5 2 -12 -3 -15 -5 -3 -9 1 -9 9 0 17 3 19 12
6z"/>
<path d="M7405 1992 c2 -3 -4 -17 -14 -31 -10 -14 -32 -55 -48 -91 -18 -39
-43 -74 -62 -88 -17 -12 -31 -29 -31 -38 0 -8 -4 -12 -10 -9 -5 3 -10 0 -10
-8 0 -8 -8 -21 -17 -28 -17 -13 -17 -13 -3 6 9 11 -1 7 -21 -10 -20 -17 -34
-33 -32 -37 2 -5 -1 -8 -7 -8 -6 0 -8 -5 -4 -12 5 -8 2 -8 -10 1 -9 8 -16 10
-14 5 2 -5 -1 -10 -6 -11 -5 -1 -12 -5 -15 -10 -3 -5 -22 -20 -41 -34 -44 -30
-48 -52 -16 -94 14 -19 26 -37 26 -40 0 -8 46 -70 83 -111 19 -22 35 -30 55
-29 39 3 39 3 46 28 3 12 13 32 23 43 10 11 23 29 30 40 23 37 102 199 116
239 8 22 24 63 35 91 26 63 34 105 23 118 -12 15 -12 28 2 45 7 8 8 12 2 9 -5
-3 -19 6 -29 20 -11 14 -14 22 -7 17 10 -6 11 -3 2 13 -6 11 -20 20 -31 19
-10 -1 -17 -3 -15 -5z m-115 -216 c0 -2 -8 -10 -17 -17 -16 -13 -17 -12 -4 4
13 16 21 21 21 13z"/>
<path d="M8211 1377 c-1 -11 -6 -15 -13 -11 -7 5 -8 3 -3 -5 10 -16 29 2 22
21 -4 8 -6 7 -6 -5z"/>
<path d="M8183 1335 c0 -8 4 -12 9 -9 5 3 6 10 3 15 -9 13 -12 11 -12 -6z"/>
<path d="M8156 1323 c-6 -14 -5 -15 5 -6 7 7 10 15 7 18 -3 3 -9 -2 -12 -12z"/>
<path d="M1868 548 c-30 -56 -3 -133 60 -167 18 -10 23 -9 27 4 3 8 7 22 10
30 2 8 0 17 -4 19 -5 3 -14 27 -21 53 -12 40 -40 83 -55 83 -2 0 -10 -10 -17
-22z"/>
</g>
</svg>
